# xmcd CD database file
#
# Track frame offsets:
#	150
#	15600
#	39525
#	63225
#	78879
#	97929
#	114354
#	134454
#	154329
#	187018
#
# Disc length: 2986 seconds
#
# Revision: 0
# Processed by: cddbd v1.5.1PL2 Copyright (c) Steve Scherf et al.
# Submitted via: CDex 1.51
#
DISCID=780ba80a
DTITLE=The BluesHammer - Can't Stop
DYEAR=2006
DGENRE=Blues
TTITLE0=Music Is My Liberty
TTITLE1=The Bookworm Blues
TTITLE2=Your Velvet Voice
TTITLE3=Just The Same Old Me
TTITLE4=Wildcat, Hellcat
TTITLE5=No Gold
TTITLE6=Only Traces In Your Mind
TTITLE7=Mirage In The Summer Sky
TTITLE8=Can't Stop
TTITLE9=Data Track
EXTD=YEAR: 2006
EXTT0=
EXTT1=
EXTT2=
EXTT3=
EXTT4=
EXTT5=
EXTT6=
EXTT7=
EXTT8=
EXTT9=
PLAYORDER=
